<svg width="900" height="220" viewBox="0 0 900 220" fill="none" xmlns="http://www.w3.org/2000/svg">
  <defs>
    <linearGradient id="rajaskiIconLight" x1="28" y1="36" x2="166" y2="162" gradientUnits="userSpaceOnUse">
      <stop stop-color="#13A976"/>
      <stop offset="1" stop-color="#9BEA63"/>
    </linearGradient>
  </defs>
  <g transform="translate(18 24)">
    <path d="M26 98C18 89 18 75 28 69C36 64 47 65 54 72L82 98L140 42C148 34 159 34 166 40C175 48 174 62 164 72L90 146C83 154 72 154 64 146L26 98Z" fill="url(#rajaskiIconLight)"/>
    <path d="M42 64V33C42 24 49 17 58 17C67 17 74 24 74 33V52L42 64Z" fill="url(#rajaskiIconLight)" opacity="0.9"/>
    <path d="M86 49V15C86 7 93 0 102 0C111 0 118 7 118 15V34L86 49Z" fill="url(#rajaskiIconLight)" opacity="0.86"/>
    <path d="M130 34V6C130 -2 137 -9 146 -9C155 -9 162 -2 162 6V19L130 34Z" fill="url(#rajaskiIconLight)" opacity="0.8"/>
  </g>
  <text x="240" y="104" fill="#123C31" font-family="Segoe UI, Arial, sans-serif" font-size="88" font-weight="800" letter-spacing="2">RAJASKI</text>
  <text x="244" y="154" fill="#2C7562" font-family="Segoe UI, Arial, sans-serif" font-size="28" font-weight="500" letter-spacing="2.4">SISTEMA DE CONTROL DE INVENTARIOS</text>
</svg>
